<?xml version="1.0" standalone="no"?>
<!DOCTYPE svg PUBLIC "-//W3C//DTD SVG 20010904//EN"
 "http://www.w3.org/TR/2001/REC-SVG-20010904/DTD/svg10.dtd">
<svg version="1.0" xmlns="http://www.w3.org/2000/svg"
 width="400.000000pt" height="400.000000pt" viewBox="0 0 400.000000 400.000000"
 preserveAspectRatio="xMidYMid meet">

<g transform="translate(0.000000,400.000000) scale(0.100000,-0.100000)"
fill="#000000" stroke="none">
<path d="M430 3955 l0 -45 -80 0 -80 0 0 -45 0 -45 -45 0 -45 0 0 -45 0 -45
-45 0 -45 0 0 -80 0 -80 -45 0 -45 0 0 -1570 0 -1570 45 0 45 0 0 -80 0 -80
45 0 45 0 0 -45 0 -45 45 0 45 0 0 -45 0 -45 80 0 80 0 0 -45 0 -45 1570 0
1570 0 0 45 0 45 80 0 80 0 0 45 0 45 45 0 45 0 0 44 c0 27 -5 46 -12 49 -7 2
13 2 45 -1 l57 -4 0 81 0 81 45 0 45 0 0 1570 0 1570 -45 0 -45 0 0 80 0 80
-45 0 -45 0 0 45 0 45 -45 0 -45 0 0 45 0 45 -80 0 -80 0 0 45 0 45 -1570 0
-1570 0 0 -45z m1290 -135 c0 -13 7 -20 20 -20 13 0 20 -7 20 -20 0 -13 7 -20
20 -20 17 0 20 7 20 40 0 33 3 40 20 40 17 0 20 -7 20 -40 l0 -40 60 0 c53 0
60 -2 60 -20 0 -17 7 -20 40 -20 33 0 40 3 40 20 0 17 7 20 40 20 l40 0 0 40
0 40 60 0 60 0 0 -40 0 -40 -40 0 -40 0 0 -40 c0 -33 -3 -40 -20 -40 -17 0
-20 -7 -20 -40 0 -33 3 -40 20 -40 19 0 20 -7 20 -140 0 -133 1 -140 20 -140
13 0 20 -7 20 -20 0 -13 -7 -20 -20 -20 -17 0 -20 -7 -20 -40 0 -33 -3 -40
-20 -40 -13 0 -20 7 -20 20 0 13 -7 20 -20 20 -13 0 -20 7 -20 20 0 13 -7 20
-20 20 -13 0 -20 -7 -20 -20 0 -13 -7 -20 -20 -20 -13 0 -20 -7 -20 -20 0 -17
7 -20 40 -20 33 0 40 -3 40 -20 0 -17 7 -20 40 -20 l40 0 0 -40 c0 -33 -3 -40
-20 -40 -13 0 -20 -7 -20 -20 0 -13 -7 -20 -20 -20 -13 0 -20 -7 -20 -20 0
-18 7 -20 80 -20 l80 0 0 -80 0 -80 -40 0 c-33 0 -40 -3 -40 -20 0 -13 -7 -20
-20 -20 -17 0 -20 -7 -20 -40 l0 -40 60 0 c53 0 60 -2 60 -20 0 -13 7 -20 20
-20 17 0 20 7 20 40 0 33 3 40 20 40 13 0 20 -7 20 -20 0 -17 7 -20 40 -20
l40 0 0 -40 c0 -33 3 -40 20 -40 13 0 20 -7 20 -20 0 -13 -7 -20 -20 -20 -18
0 -20 -7 -20 -80 0 -73 -2 -80 -20 -80 -17 0 -20 7 -20 40 0 33 -3 40 -20 40
-13 0 -20 -7 -20 -20 0 -13 -7 -20 -20 -20 -13 0 -20 -7 -20 -20 0 -18 -7 -20
-60 -20 l-60 0 0 -140 0 -140 -40 0 -40 0 0 -40 c0 -33 -3 -40 -20 -40 -17 0
-20 -7 -20 -40 0 -33 -3 -40 -20 -40 -13 0 -20 -7 -20 -20 0 -13 7 -20 20 -20
13 0 20 -7 20 -20 0 -13 7 -20 20 -20 13 0 20 7 20 20 0 18 7 20 80 20 73 0
80 2 80 20 0 17 -7 20 -40 20 -33 0 -40 3 -40 20 0 18 7 20 60 20 l60 0 0 -40
c0 -33 -3 -40 -20 -40 -13 0 -20 -7 -20 -20 0 -18 -7 -20 -60 -20 l-60 0 0
-80 c0 -73 -2 -80 -20 -80 -13 0 -20 7 -20 20 0 13 -7 20 -20 20 -19 0 -20 -7
-20 -120 0 -113 -1 -120 -20 -120 -19 0 -20 7 -20 100 l0 100 -40 0 c-33 0
-40 3 -40 20 0 13 -7 20 -20 20 -18 0 -20 7 -20 60 l0 60 -40 0 c-33 0 -40 3
-40 20 0 13 7 20 20 20 13 0 20 7 20 20 0 13 7 20 20 20 18 0 20 7 20 80 0 73
2 80 20 80 13 0 20 7 20 20 0 17 -7 20 -40 20 -33 0 -40 3 -40 20 0 13 -7 20
-20 20 -13 0 -20 -7 -20 -20 0 -13 -7 -20 -20 -20 -13 0 -20 -7 -20 -20 0 -13
7 -20 20 -20 17 0 20 -7 20 -40 l0 -40 -40 0 c-33 0 -40 -3 -40 -20 0 -17 7
-20 40 -20 33 0 40 -3 40 -20 0 -19 -7 -20 -120 -20 -113 0 -120 1 -120 20 0
13 -7 20 -20 20 -17 0 -20 -7 -20 -40 l0 -40 -100 0 c-93 0 -100 1 -100 20 0
18 7 20 60 20 53 0 60 2 60 20 0 13 -7 20 -20 20 -13 0 -20 7 -20 20 0 18 7
20 60 20 l60 0 0 100 0 100 60 0 60 0 0 -40 c0 -33 -3 -40 -20 -40 -13 0 -20
-7 -20 -20 0 -17 7 -20 40 -20 33 0 40 3 40 20 0 13 7 20 20 20 17 0 20 7 20
40 0 33 -3 40 -20 40 -18 0 -20 7 -20 60 0 53 -2 60 -20 60 -17 0 -20 -7 -20
-40 0 -33 -3 -40 -20 -40 -19 0 -20 7 -20 100 0 93 -1 100 -20 100 -13 0 -20
-7 -20 -20 0 -17 -7 -20 -40 -20 l-40 0 0 -80 c0 -73 -2 -80 -20 -80 -13 0
-20 -7 -20 -20 0 -13 7 -20 20 -20 17 0 20 -7 20 -40 0 -33 -3 -40 -20 -40
-13 0 -20 7 -20 20 0 13 -7 20 -20 20 -17 0 -20 7 -20 40 0 33 3 40 20 40 17
0 20 7 20 40 0 33 -3 40 -20 40 -17 0 -20 7 -20 40 0 33 -3 40 -20 40 -13 0
-20 7 -20 20 0 13 7 20 20 20 13 0 20 -7 20 -20 0 -17 7 -20 40 -20 l40 0 0
100 c0 93 -1 100 -20 100 -13 0 -20 7 -20 20 0 13 -7 20 -20 20 -18 0 -20 7
-20 60 l0 60 60 0 c53 0 60 -2 60 -20 0 -17 -7 -20 -40 -20 l-40 0 0 -40 c0
-33 3 -40 20 -40 13 0 20 7 20 20 0 17 7 20 40 20 33 0 40 -3 40 -20 0 -13 -7
-20 -20 -20 -18 0 -20 -7 -20 -60 l0 -60 40 0 40 0 0 80 0 80 100 0 c93 0 100
-1 100 -20 0 -13 -7 -20 -20 -20 -19 0 -20 -7 -20 -100 l0 -100 40 0 c33 0 40
3 40 20 0 18 7 20 60 20 53 0 60 -2 60 -20 0 -17 -7 -20 -40 -20 l-40 0 0 -40
c0 -33 3 -40 20 -40 18 0 20 -7 20 -80 l0 -80 40 0 40 0 0 -60 0 -60 40 0 40
0 0 80 0 80 -40 0 -40 0 0 40 c0 33 -3 40 -20 40 -17 0 -20 7 -20 40 0 33 3
40 20 40 17 0 20 7 20 40 l0 40 40 0 40 0 0 60 c0 53 -2 60 -20 60 -13 0 -20
7 -20 20 0 13 -7 20 -20 20 -13 0 -20 -7 -20 -20 0 -13 -7 -20 -20 -20 -13 0
-20 7 -20 20 0 17 -7 20 -40 20 -33 0 -40 -3 -40 -20 0 -13 -7 -20 -20 -20
-17 0 -20 7 -20 40 l0 40 60 0 c53 0 60 2 60 20 0 13 7 20 20 20 13 0 20 7 20
20 0 18 -7 20 -80 20 l-80 0 0 60 c0 53 2 60 20 60 13 0 20 7 20 20 0 18 7 20
80 20 73 0 80 2 80 20 0 19 -7 20 -120 20 -113 0 -120 -1 -120 -20 0 -13 -7
-20 -20 -20 -18 0 -20 -7 -20 -80 0 -73 -2 -80 -20 -80 -17 0 -20 7 -20 40 0
33 -3 40 -20 40 -18 0 -20 -7 -20 -60 0 -53 -2 -60 -20 -60 -13 0 -20 7 -20
20 0 13 -7 20 -20 20 -13 0 -20 -7 -20 -20 0 -13 -7 -20 -20 -20 -18 0 -20 7
-20 60 l0 60 -40 0 -40 0 0 80 c0 73 2 80 20 80 18 0 20 7 20 60 l0 60 -40 0
-40 0 0 -60 c0 -53 -2 -60 -20 -60 -18 0 -20 -7 -20 -80 l0 -80 -40 0 -40 0 0
-40 c0 -33 -3 -40 -20 -40 -13 0 -20 -7 -20 -20 0 -18 -7 -20 -60 -20 -53 0
-60 -2 -60 -20 0 -13 7 -20 20 -20 13 0 20 -7 20 -20 0 -17 7 -20 40 -20 33 0
40 3 40 20 0 13 7 20 20 20 13 0 20 -7 20 -20 0 -13 7 -20 20 -20 18 0 20 -7
20 -60 0 -53 -2 -60 -20 -60 -17 0 -20 -7 -20 -40 0 -33 -3 -40 -20 -40 -13 0
-20 -7 -20 -20 0 -13 7 -20 20 -20 17 0 20 -7 20 -40 0 -33 3 -40 20 -40 18 0
20 -7 20 -60 l0 -60 -40 0 c-33 0 -40 -3 -40 -20 0 -17 7 -20 40 -20 33 0 40
-3 40 -20 0 -18 -7 -20 -60 -20 -53 0 -60 -2 -60 -20 0 -13 -7 -20 -20 -20
-17 0 -20 -7 -20 -40 0 -33 3 -40 20 -40 17 0 20 -7 20 -40 0 -33 -3 -40 -20
-40 -18 0 -20 -7 -20 -80 0 -73 -2 -80 -20 -80 -18 0 -20 7 -20 60 0 53 -2 60
-20 60 -13 0 -20 7 -20 20 0 13 -7 20 -20 20 -13 0 -20 7 -20 20 0 13 -7 20
-20 20 -17 0 -20 -7 -20 -40 0 -33 3 -40 20 -40 13 0 20 -7 20 -20 0 -13 7
-20 20 -20 17 0 20 -7 20 -40 l0 -40 -80 0 -80 0 0 40 0 40 -40 0 -40 0 0 -40
0 -40 -40 0 c-33 0 -40 -3 -40 -20 0 -13 7 -20 20 -20 13 0 20 -7 20 -20 0
-18 7 -20 60 -20 53 0 60 2 60 20 0 19 7 20 140 20 l140 0 0 60 0 60 40 0 40
0 0 -40 c0 -33 3 -40 20 -40 13 0 20 -7 20 -20 0 -17 7 -20 40 -20 l40 0 0 60
0 60 60 0 c53 0 60 2 60 20 0 17 7 20 40 20 33 0 40 -3 40 -20 0 -13 7 -20 20
-20 17 0 20 -7 20 -40 0 -33 -3 -40 -20 -40 -17 0 -20 7 -20 40 0 33 -3 40
-20 40 -17 0 -20 -7 -20 -40 l0 -40 -60 0 c-53 0 -60 -2 -60 -20 0 -13 -7 -20
-20 -20 -17 0 -20 -7 -20 -40 0 -33 3 -40 20 -40 13 0 20 -7 20 -20 0 -17 7
-20 40 -20 l40 0 0 40 c0 33 -3 40 -20 40 -13 0 -20 7 -20 20 0 19 7 20 120
20 113 0 120 -1 120 -20 0 -17 -7 -20 -40 -20 l-40 0 0 -40 0 -40 120 0 120 0
0 -40 c0 -33 -3 -40 -20 -40 -13 0 -20 -7 -20 -20 0 -13 -7 -20 -20 -20 -13 0
-20 -7 -20 -20 0 -13 7 -20 20 -20 19 0 20 -7 20 -100 l0 -100 -40 0 c-33 0
-40 -3 -40 -20 0 -17 7 -20 40 -20 l40 0 0 -40 0 -40 -40 0 -40 0 0 40 c0 33
-3 40 -20 40 -18 0 -20 -7 -20 -60 0 -53 -2 -60 -20 -60 -13 0 -20 7 -20 20 0
13 -7 20 -20 20 -13 0 -20 -7 -20 -20 0 -13 -7 -20 -20 -20 -17 0 -20 -7 -20
-40 l0 -40 -40 0 -40 0 0 40 c0 33 -3 40 -20 40 -18 0 -20 7 -20 80 l0 80 40
0 40 0 0 40 c0 33 -3 40 -20 40 -13 0 -20 7 -20 20 0 17 -7 20 -40 20 l-40 0
0 -80 c0 -73 -2 -80 -20 -80 -13 0 -20 -7 -20 -20 0 -13 7 -20 20 -20 13 0 20
-7 20 -20 0 -17 -7 -20 -40 -20 -33 0 -40 -3 -40 -20 0 -13 -7 -20 -20 -20
-17 0 -20 7 -20 40 0 33 3 40 20 40 17 0 20 7 20 40 0 33 -3 40 -20 40 -19 0
-20 7 -20 100 0 93 1 100 20 100 13 0 20 7 20 20 0 13 -7 20 -20 20 -18 0 -20
7 -20 60 0 53 -2 60 -20 60 -18 0 -20 7 -20 80 0 73 -2 80 -20 80 -13 0 -20
-7 -20 -20 0 -13 -7 -20 -20 -20 -17 0 -20 -7 -20 -40 l0 -40 -60 0 c-53 0
-60 -2 -60 -20 0 -13 -7 -20 -20 -20 -17 0 -20 -7 -20 -40 0 -33 3 -40 20 -40
17 0 20 -7 20 -40 l0 -40 -40 0 -40 0 0 80 0 80 -60 0 -60 0 0 -80 0 -80 40 0
40 0 0 -40 c0 -33 3 -40 20 -40 13 0 20 -7 20 -20 0 -18 -7 -20 -60 -20 l-60
0 0 40 0 40 -40 0 -40 0 0 -40 c0 -33 -3 -40 -20 -40 -17 0 -20 7 -20 40 0 33
-3 40 -20 40 -13 0 -20 7 -20 20 0 19 -7 20 -100 20 l-100 0 0 -40 0 -40 -80
0 c-73 0 -80 -2 -80 -20 0 -13 -7 -20 -20 -20 -17 0 -20 -7 -20 -40 0 -33 -3
-40 -20 -40 -13 0 -20 -7 -20 -20 0 -13 -7 -20 -20 -20 -13 0 -20 -7 -20 -20
0 -17 -7 -20 -40 -20 -33 0 -40 -3 -40 -20 0 -17 -7 -20 -40 -20 -33 0 -40 -3
-40 -20 0 -11 -7 -20 -15 -20 -13 0 -15 62 -15 500 l0 500 95 0 c88 0 95 1 95
20 0 19 -7 20 -95 20 l-95 0 0 360 0 360 515 0 515 0 0 -40 c0 -33 3 -40 20
-40 17 0 20 7 20 40 l0 40 60 0 c53 0 60 2 60 20 0 17 7 20 40 20 l40 0 0 60
c0 53 -2 60 -20 60 -13 0 -20 -7 -20 -20 0 -20 -7 -20 -615 -20 l-615 0 0 265
0 265 45 0 45 0 0 80 0 80 45 0 c45 0 45 0 45 35 0 35 0 35 45 35 l45 0 0 -40
c0 -33 3 -40 20 -40 13 0 20 -7 20 -20 0 -17 7 -20 40 -20 l40 0 0 -60 0 -60
40 0 c33 0 40 -3 40 -20 0 -20 7 -20 280 -20 273 0 280 0 280 20 0 17 7 20 40
20 33 0 40 3 40 20 0 17 7 20 40 20 l40 0 0 40 0 40 100 0 100 0 0 -40 c0 -33
3 -40 20 -40 13 0 20 -7 20 -20 0 -13 7 -20 20 -20 18 0 20 7 20 60 0 53 -2
60 -20 60 -18 0 -20 7 -20 60 l0 60 60 0 c53 0 60 2 60 20 0 17 7 20 40 20 33
0 40 -3 40 -20z m640 -20 c0 -33 3 -40 20 -40 17 0 20 -7 20 -40 l0 -40 -40 0
c-33 0 -40 3 -40 20 0 13 -7 20 -20 20 -17 0 -20 7 -20 40 0 33 3 40 20 40 13
0 20 7 20 20 0 13 7 20 20 20 17 0 20 -7 20 -40z m1040 0 l0 -40 100 0 c93 0
100 -1 100 -20 0 -13 7 -20 20 -20 18 0 20 -7 20 -60 0 -53 -2 -60 -20 -60
-18 0 -20 7 -20 60 0 53 -2 60 -20 60 -13 0 -20 -7 -20 -20 0 -17 -7 -20 -40
-20 l-40 0 0 -40 0 -40 -140 0 c-133 0 -140 -1 -140 -20 0 -19 -7 -20 -140
-20 l-140 0 0 -40 0 -40 -60 0 c-53 0 -60 -2 -60 -20 0 -19 -7 -20 -140 -20
l-140 0 0 160 c0 153 -1 160 -20 160 -13 0 -20 -7 -20 -20 0 -13 -7 -20 -20
-20 -13 0 -20 7 -20 20 0 13 7 20 20 20 13 0 20 7 20 20 0 13 7 20 20 20 13 0
20 -7 20 -20 0 -19 7 -20 200 -20 193 0 200 1 200 20 0 13 7 20 20 20 13 0 20
7 20 20 0 19 7 20 220 20 l220 0 0 -40z m-1000 -300 c0 -53 -2 -60 -20 -60
-17 0 -20 7 -20 40 0 33 -3 40 -20 40 -13 0 -20 7 -20 20 0 17 7 20 40 20 l40
0 0 -60z m1040 -140 c0 -33 3 -40 20 -40 17 0 20 7 20 40 l0 40 80 0 80 0 0
-40 0 -40 40 0 c33 0 40 -3 40 -20 0 -13 7 -20 20 -20 13 0 20 -7 20 -20 0
-18 7 -20 75 -20 l75 0 0 -40 c0 -29 -4 -40 -15 -40 -11 0 -15 -11 -15 -40 0
-29 4 -40 15 -40 13 0 15 -109 15 -920 0 -811 -2 -920 -15 -920 -8 0 -15 -9
-15 -20 0 -13 -7 -20 -20 -20 -13 0 -20 -7 -20 -20 0 -17 -7 -20 -40 -20 l-40
0 0 -40 c0 -33 -3 -40 -20 -40 -13 0 -20 -7 -20 -20 0 -18 -7 -20 -80 -20
l-80 0 0 120 c0 113 -1 120 -20 120 -13 0 -20 7 -20 20 0 13 -7 20 -20 20 -19
0 -20 7 -20 120 0 113 -1 120 -20 120 -13 0 -20 7 -20 20 0 13 -7 20 -20 20
-13 0 -20 -7 -20 -20 0 -17 -7 -20 -40 -20 l-40 0 0 140 0 140 -80 0 -80 0 0
100 c0 93 -1 100 -20 100 -18 0 -20 7 -20 80 l0 80 -40 0 -40 0 0 100 0 100
-40 0 -40 0 0 60 0 60 -80 0 c-73 0 -80 -2 -80 -20 0 -13 -7 -20 -20 -20 -13
0 -20 7 -20 20 0 13 7 20 20 20 18 0 20 7 20 80 0 73 2 80 20 80 13 0 20 7 20
20 0 13 7 20 20 20 13 0 20 7 20 20 0 17 -7 20 -40 20 -33 0 -40 3 -40 20 0
13 -7 20 -20 20 -13 0 -20 7 -20 20 0 13 -7 20 -20 20 -18 0 -20 7 -20 60 0
53 -2 60 -20 60 -18 0 -20 7 -20 60 0 53 -2 60 -20 60 -18 0 -20 7 -20 60 0
53 2 60 20 60 13 0 20 7 20 20 0 13 7 20 20 20 13 0 20 7 20 20 0 19 7 20 200
20 193 0 200 -1 200 -20 0 -19 7 -20 140 -20 133 0 140 1 140 20 0 13 7 20 20
20 13 0 20 7 20 20 0 13 -7 20 -20 20 -17 0 -20 7 -20 40 0 33 3 40 20 40 17
0 20 -7 20 -40z m-1040 -240 l0 -40 -60 0 -60 0 0 40 0 40 60 0 60 0 0 -40z
m120 -180 c0 -13 -7 -20 -20 -20 -17 0 -20 -7 -20 -40 0 -33 -3 -40 -20 -40
-18 0 -20 7 -20 60 l0 60 40 0 c33 0 40 -3 40 -20z m40 -200 c0 -18 -7 -20
-60 -20 -53 0 -60 2 -60 20 0 18 7 20 60 20 53 0 60 -2 60 -20z m0 -320 c0
-13 -7 -20 -20 -20 -13 0 -20 7 -20 20 0 13 7 20 20 20 13 0 20 -7 20 -20z
m-40 -120 c0 -17 -7 -20 -40 -20 -33 0 -40 3 -40 20 0 17 7 20 40 20 33 0 40
-3 40 -20z m-200 -120 l0 -100 -40 0 -40 0 0 100 0 100 40 0 40 0 0 -100z
m320 80 c0 -13 -7 -20 -20 -20 -13 0 -20 7 -20 20 0 13 7 20 20 20 13 0 20 -7
20 -20z m200 -40 c0 -13 -7 -20 -20 -20 -13 0 -20 7 -20 20 0 13 7 20 20 20
13 0 20 -7 20 -20z m-1480 -160 c0 -13 -7 -20 -20 -20 -13 0 -20 7 -20 20 0
13 7 20 20 20 13 0 20 -7 20 -20z m1200 -40 c0 -53 -2 -60 -20 -60 -18 0 -20
7 -20 60 0 53 2 60 20 60 18 0 20 -7 20 -60z m-80 0 c0 -13 -7 -20 -20 -20
-13 0 -20 7 -20 20 0 13 7 20 20 20 13 0 20 -7 20 -20z m160 0 c0 -13 -7 -20
-20 -20 -13 0 -20 7 -20 20 0 13 7 20 20 20 13 0 20 -7 20 -20z m40 -80 c0
-17 -7 -20 -40 -20 -33 0 -40 3 -40 20 0 17 7 20 40 20 33 0 40 -3 40 -20z
m-120 -140 c0 -113 -1 -120 -20 -120 -13 0 -20 7 -20 20 0 13 -7 20 -20 20
-13 0 -20 7 -20 20 0 13 -7 20 -20 20 -17 0 -20 7 -20 40 l0 40 -40 0 -40 0 0
40 0 40 100 0 100 0 0 -120z m320 60 c0 -53 -2 -60 -20 -60 -13 0 -20 7 -20
20 0 13 -7 20 -20 20 -17 0 -20 7 -20 40 l0 40 40 0 40 0 0 -60z m-160 -40 c0
-13 -7 -20 -20 -20 -13 0 -20 7 -20 20 0 13 7 20 20 20 13 0 20 -7 20 -20z
m-320 -40 c0 -17 -7 -20 -40 -20 -33 0 -40 -3 -40 -20 0 -13 -7 -20 -20 -20
-13 0 -20 7 -20 20 0 13 -7 20 -20 20 -13 0 -20 7 -20 20 0 18 7 20 80 20 73
0 80 -2 80 -20z m-1160 -140 c0 -33 3 -40 20 -40 13 0 20 -7 20 -20 0 -17 -7
-20 -40 -20 l-40 0 0 60 c0 53 2 60 20 60 17 0 20 -7 20 -40z m1160 -20 c0
-53 2 -60 20 -60 17 0 20 -7 20 -40 0 -33 -3 -40 -20 -40 -17 0 -20 -7 -20
-40 l0 -40 -180 0 c-173 0 -180 1 -180 20 0 17 7 20 40 20 33 0 40 3 40 20 0
18 -7 20 -60 20 -53 0 -60 2 -60 20 0 19 7 20 100 20 93 0 100 1 100 20 0 17
-7 20 -40 20 -33 0 -40 3 -40 20 0 17 7 20 40 20 l40 0 0 40 0 40 100 0 100 0
0 -60z m400 20 l0 -40 -40 0 c-33 0 -40 -3 -40 -20 0 -13 -7 -20 -20 -20 -18
0 -20 7 -20 60 l0 60 60 0 60 0 0 -40z m160 0 c0 -33 -3 -40 -20 -40 -17 0
-20 7 -20 40 0 33 3 40 20 40 17 0 20 -7 20 -40z m0 -100 c0 -13 -7 -20 -20
-20 -13 0 -20 7 -20 20 0 13 7 20 20 20 13 0 20 -7 20 -20z m-120 -80 c0 -13
-7 -20 -20 -20 -13 0 -20 7 -20 20 0 13 7 20 20 20 13 0 20 -7 20 -20z m-2200
-40 c0 -13 -7 -20 -20 -20 -13 0 -20 7 -20 20 0 13 7 20 20 20 13 0 20 -7 20
-20z m2400 -40 l0 -60 -40 0 -40 0 0 60 0 60 40 0 40 0 0 -60z m-240 -20 c0
-33 -3 -40 -20 -40 -17 0 -20 7 -20 40 0 33 3 40 20 40 17 0 20 -7 20 -40z
m-2160 -60 c0 -13 7 -20 20 -20 13 0 20 7 20 20 0 19 7 20 120 20 113 0 120
-1 120 -20 0 -13 -7 -20 -20 -20 -13 0 -20 -7 -20 -20 0 -13 -7 -20 -20 -20
-17 0 -20 -7 -20 -40 0 -33 -3 -40 -20 -40 -17 0 -20 -7 -20 -40 0 -33 3 -40
20 -40 13 0 20 -7 20 -20 0 -13 -7 -20 -20 -20 -13 0 -20 -7 -20 -20 0 -19 -7
-20 -160 -20 -153 0 -160 1 -160 20 0 13 7 20 20 20 13 0 20 7 20 20 0 17 7
20 40 20 l40 0 0 40 0 40 40 0 40 0 0 40 0 40 -60 0 -60 0 0 -40 0 -40 -140 0
c-133 0 -140 1 -140 20 0 18 7 20 60 20 53 0 60 2 60 20 0 13 7 20 20 20 17 0
20 7 20 40 l0 40 100 0 c93 0 100 -1 100 -20z m440 0 c0 -13 -7 -20 -20 -20
-13 0 -20 7 -20 20 0 13 7 20 20 20 13 0 20 -7 20 -20z m160 0 c0 -13 -7 -20
-20 -20 -13 0 -20 7 -20 20 0 13 7 20 20 20 13 0 20 -7 20 -20z m920 0 c0 -13
7 -20 20 -20 13 0 20 7 20 20 0 19 7 20 100 20 l100 0 0 -80 0 -80 -40 0 -40
0 0 -60 0 -60 40 0 40 0 0 -40 0 -40 -120 0 -120 0 0 40 c0 33 -3 40 -20 40
-13 0 -20 7 -20 20 0 13 -7 20 -20 20 -18 0 -20 7 -20 60 0 53 2 60 20 60 17
0 20 7 20 40 l0 40 -60 0 c-53 0 -60 2 -60 20 0 18 7 20 80 20 73 0 80 -2 80
-20z m480 -60 c0 -73 2 -80 20 -80 13 0 20 7 20 20 0 17 7 20 40 20 33 0 40
-3 40 -20 0 -13 -7 -20 -20 -20 -17 0 -20 -7 -20 -40 0 -33 -3 -40 -20 -40
-17 0 -20 -7 -20 -40 0 -33 3 -40 20 -40 18 0 20 -7 20 -80 l0 -80 -40 0 -40
0 0 40 c0 33 3 40 20 40 13 0 20 7 20 20 0 17 -7 20 -40 20 l-40 0 0 100 0
100 -40 0 -40 0 0 80 0 80 60 0 60 0 0 -80z m-1480 20 c0 -18 7 -20 80 -20 73
0 80 -2 80 -20 0 -13 -7 -20 -20 -20 -13 0 -20 -7 -20 -20 0 -13 -7 -20 -20
-20 -17 0 -20 -7 -20 -40 l0 -40 -40 0 -40 0 0 -40 0 -40 -140 0 -140 0 0 -40
c0 -33 -3 -40 -20 -40 -17 0 -20 -7 -20 -40 l0 -40 -40 0 -40 0 0 60 c0 53 2
60 20 60 13 0 20 -7 20 -20 0 -13 7 -20 20 -20 17 0 20 7 20 40 0 33 3 40 20
40 18 0 20 7 20 80 l0 80 140 0 c133 0 140 1 140 20 0 13 -7 20 -20 20 -17 0
-20 7 -20 40 0 33 3 40 20 40 13 0 20 -7 20 -20z m1760 -120 l0 -60 -40 0 -40
0 0 -40 c0 -33 -3 -40 -20 -40 -17 0 -20 7 -20 40 0 33 3 40 20 40 17 0 20 7
20 40 0 33 3 40 20 40 13 0 20 7 20 20 0 13 7 20 20 20 18 0 20 -7 20 -60z
m-1440 -20 c0 -33 -3 -40 -20 -40 -17 0 -20 7 -20 40 0 33 3 40 20 40 17 0 20
-7 20 -40z m400 0 c0 -33 -3 -40 -20 -40 -18 0 -20 -7 -20 -60 l0 -60 120 0
120 0 0 -120 c0 -113 -1 -120 -20 -120 -13 0 -20 7 -20 20 0 19 -7 20 -100 20
-93 0 -100 1 -100 20 0 18 -7 20 -60 20 l-60 0 0 80 c0 73 2 80 20 80 13 0 20
-7 20 -20 0 -13 7 -20 20 -20 17 0 20 7 20 40 l0 40 -40 0 c-33 0 -40 3 -40
20 0 13 -7 20 -20 20 -13 0 -20 7 -20 20 0 18 7 20 60 20 l60 0 0 40 0 40 40
0 40 0 0 -40z m-1440 -80 c0 -33 -3 -40 -20 -40 -17 0 -20 7 -20 40 0 33 3 40
20 40 17 0 20 -7 20 -40z m800 -20 c0 -13 -7 -20 -20 -20 -13 0 -20 7 -20 20
0 13 7 20 20 20 13 0 20 -7 20 -20z m400 0 c0 -13 -7 -20 -20 -20 -13 0 -20
-7 -20 -20 0 -13 7 -20 20 -20 13 0 20 -7 20 -20 0 -13 -7 -20 -20 -20 -17 0
-20 -7 -20 -40 0 -33 -3 -40 -20 -40 -13 0 -20 -7 -20 -20 0 -13 -7 -20 -20
-20 -13 0 -20 7 -20 20 0 13 -7 20 -20 20 -17 0 -20 -7 -20 -40 0 -33 -3 -40
-20 -40 -13 0 -20 -7 -20 -20 0 -17 -7 -20 -40 -20 l-40 0 0 -80 0 -80 40 0
40 0 0 -40 0 -40 80 0 c73 0 80 -2 80 -20 0 -19 -7 -20 -120 -20 -113 0 -120
1 -120 20 0 13 7 20 20 20 13 0 20 7 20 20 0 17 -7 20 -40 20 l-40 0 0 40 0
40 -60 0 -60 0 0 40 c0 33 -3 40 -20 40 -13 0 -20 7 -20 20 0 18 7 20 80 20
l80 0 0 40 0 40 -40 0 c-33 0 -40 -3 -40 -20 0 -18 -7 -20 -60 -20 -53 0 -60
2 -60 20 0 17 -7 20 -40 20 l-40 0 0 60 0 60 40 0 40 0 0 -60 c0 -53 2 -60 20
-60 18 0 20 7 20 60 l0 60 80 0 c73 0 80 2 80 20 0 13 7 20 20 20 13 0 20 7
20 20 0 13 -7 20 -20 20 -13 0 -20 7 -20 20 0 19 7 20 160 20 153 0 160 -1
160 -20z m2160 -80 c0 -13 -7 -20 -20 -20 -13 0 -20 7 -20 20 0 13 7 20 20 20
13 0 20 -7 20 -20z m-3560 -80 l0 -60 60 0 60 0 0 60 c0 53 2 60 20 60 17 0
20 -7 20 -40 0 -33 3 -40 20 -40 13 0 20 -7 20 -20 0 -19 7 -20 100 -20 93 0
100 1 100 20 0 13 -7 20 -20 20 -17 0 -20 7 -20 40 l0 40 60 0 60 0 0 -60 0
-60 40 0 c33 0 40 -3 40 -20 0 -19 -7 -20 -160 -20 -153 0 -160 -1 -160 -20 0
-19 7 -20 220 -20 213 0 220 -1 220 -20 0 -17 -7 -20 -40 -20 l-40 0 0 -40 c0
-33 -3 -40 -20 -40 -13 0 -20 -7 -20 -20 0 -18 -7 -20 -80 -20 -73 0 -80 -2
-80 -20 0 -18 -7 -20 -80 -20 l-80 0 0 100 c0 93 -1 100 -20 100 -18 0 -20 -7
-20 -60 l0 -60 -40 0 c-33 0 -40 -3 -40 -20 0 -17 -7 -20 -40 -20 -33 0 -40 3
-40 20 0 18 -7 20 -80 20 l-80 0 0 40 c0 29 -4 40 -15 40 -8 0 -15 9 -15 20 0
18 7 20 55 20 48 0 55 -2 55 -20 0 -17 7 -20 40 -20 l40 0 0 40 0 40 -80 0
c-73 0 -80 2 -80 20 0 11 -7 20 -15 20 -12 0 -15 13 -15 60 l0 60 75 0 75 0 0
-60z m2920 20 c0 -33 -3 -40 -20 -40 -13 0 -20 -7 -20 -20 0 -13 -7 -20 -20
-20 -13 0 -20 7 -20 20 0 13 -7 20 -20 20 -17 0 -20 7 -20 40 l0 40 60 0 60 0
0 -40z m160 0 c0 -33 3 -40 20 -40 18 0 20 -7 20 -60 0 -53 -2 -60 -20 -60
-13 0 -20 7 -20 20 0 13 -7 20 -20 20 -13 0 -20 7 -20 20 0 17 -7 20 -40 20
l-40 0 0 60 0 60 60 0 60 0 0 -40z m120 0 c0 -33 -3 -40 -20 -40 -17 0 -20 7
-20 40 0 33 3 40 20 40 17 0 20 -7 20 -40z m-2520 -60 c0 -13 -7 -20 -20 -20
-13 0 -20 -7 -20 -20 0 -13 -7 -20 -20 -20 -13 0 -20 7 -20 20 0 13 7 20 20
20 13 0 20 7 20 20 0 13 7 20 20 20 13 0 20 -7 20 -20z m2680 0 c0 -13 -7 -20
-20 -20 -13 0 -20 7 -20 20 0 13 7 20 20 20 13 0 20 -7 20 -20z m-880 -40 c0
-17 -7 -20 -40 -20 -33 0 -40 -3 -40 -20 0 -17 7 -20 40 -20 l40 0 0 -60 c0
-53 -2 -60 -20 -60 -13 0 -20 -7 -20 -20 0 -13 -7 -20 -20 -20 -18 0 -20 7
-20 80 0 73 -2 80 -20 80 -13 0 -20 -7 -20 -20 0 -17 -7 -20 -40 -20 l-40 0 0
40 c0 33 -3 40 -20 40 -13 0 -20 7 -20 20 0 19 7 20 120 20 113 0 120 -1 120
-20z m1000 0 c0 -13 -7 -20 -20 -20 -13 0 -20 7 -20 20 0 13 7 20 20 20 13 0
20 -7 20 -20z m-840 -80 c0 -13 -7 -20 -20 -20 -13 0 -20 7 -20 20 0 13 7 20
20 20 13 0 20 -7 20 -20z m840 0 c0 -13 -7 -20 -20 -20 -13 0 -20 7 -20 20 0
13 7 20 20 20 13 0 20 -7 20 -20z m-1680 -60 l0 -40 100 0 c93 0 100 -1 100
-20 0 -18 -7 -20 -80 -20 l-80 0 0 -40 c0 -33 -3 -40 -20 -40 -17 0 -20 7 -20
40 0 33 -3 40 -20 40 -18 0 -20 -7 -20 -80 l0 -80 40 0 40 0 0 -40 0 -40 -100
0 -100 0 0 40 c0 33 3 40 20 40 17 0 20 7 20 40 0 33 -3 40 -20 40 -17 0 -20
7 -20 40 0 33 -3 40 -20 40 -17 0 -20 -7 -20 -40 0 -33 -3 -40 -20 -40 -13 0
-20 -7 -20 -20 0 -18 -7 -20 -60 -20 l-60 0 0 60 0 60 -60 0 -60 0 0 60 0 60
240 0 240 0 0 -40z m1720 -60 c0 -13 -7 -20 -20 -20 -13 0 -20 7 -20 20 0 13
7 20 20 20 13 0 20 -7 20 -20z m-3520 -40 c0 -17 7 -20 40 -20 33 0 40 -3 40
-20 0 -18 -7 -20 -60 -20 l-60 0 0 40 c0 33 3 40 20 40 13 0 20 -7 20 -20z
m3670 -20 c0 -39 -1 -40 -35 -40 -31 0 -35 -3 -35 -25 0 -14 -4 -25 -10 -25
-5 0 -10 -7 -10 -15 0 -11 -12 -15 -50 -15 l-50 0 0 -40 0 -40 -40 0 c-33 0
-40 -3 -40 -20 0 -18 7 -20 63 -21 34 -1 54 -3 45 -6 -14 -3 -18 -15 -18 -49
l0 -44 -80 0 -80 0 0 -45 0 -45 -305 0 c-264 0 -305 2 -305 15 0 11 -11 15
-40 15 -33 0 -40 3 -40 20 0 18 7 20 60 20 53 0 60 2 60 20 0 17 7 20 40 20
33 0 40 3 40 20 0 18 7 20 60 20 53 0 60 2 60 20 0 19 7 20 180 20 173 0 180
1 180 20 0 13 7 20 20 20 17 0 20 7 20 40 l0 40 40 0 c33 0 40 3 40 20 0 19
-7 20 -200 20 -193 0 -200 -1 -200 -20 0 -18 7 -20 80 -20 l80 0 0 -40 0 -40
-80 0 -80 0 0 40 0 40 -120 0 -120 0 0 -40 0 -40 -40 0 c-33 0 -40 -3 -40 -20
0 -18 -7 -20 -60 -20 l-60 0 0 -40 0 -40 -40 0 c-33 0 -40 -3 -40 -20 0 -17 7
-20 40 -20 33 0 40 -3 40 -20 0 -13 -7 -20 -20 -20 -11 0 -20 -7 -20 -15 0
-11 -11 -15 -40 -15 -29 0 -40 4 -40 15 0 8 -9 15 -20 15 -17 0 -20 7 -20 40
l0 40 -40 0 c-33 0 -40 -3 -40 -20 0 -18 -7 -20 -80 -20 -73 0 -80 -2 -80 -20
0 -13 -7 -20 -20 -20 -11 0 -20 -7 -20 -15 0 -12 -18 -15 -100 -15 l-100 0 0
35 c0 28 4 35 20 35 13 0 20 7 20 20 0 13 7 20 20 20 13 0 20 -7 20 -20 0 -13
7 -20 20 -20 17 0 20 7 20 40 l0 40 -60 0 c-53 0 -60 2 -60 20 0 13 7 20 20
20 13 0 20 7 20 20 0 19 7 20 160 20 153 0 160 -1 160 -20 0 -18 7 -20 80 -20
73 0 80 2 80 20 0 13 7 20 20 20 17 0 20 7 20 40 l0 40 140 0 140 0 0 40 0 40
120 0 c113 0 120 1 120 20 0 18 7 20 60 20 53 0 60 -2 60 -20 0 -18 7 -20 60
-20 53 0 60 2 60 20 0 17 7 20 40 20 33 0 40 -3 40 -20 0 -17 7 -20 40 -20 33
0 40 3 40 20 0 18 7 20 80 20 73 0 80 2 80 20 0 16 7 20 35 20 34 0 35 -1 35
-40z m-3150 -20 c0 -13 7 -20 20 -20 13 0 20 7 20 20 0 13 7 20 20 20 17 0 20
-7 20 -40 l0 -40 -60 0 -60 0 0 40 c0 33 3 40 20 40 13 0 20 -7 20 -20z m1960
-40 c0 -53 -2 -60 -20 -60 -18 0 -20 7 -20 60 0 53 2 60 20 60 18 0 20 -7 20
-60z m-2560 0 c0 -18 7 -20 60 -20 53 0 60 -2 60 -20 0 -13 7 -20 20 -20 13 0
20 7 20 20 0 18 7 20 60 20 53 0 60 -2 60 -20 0 -13 7 -20 20 -20 17 0 20 -7
20 -40 l0 -40 -100 0 c-93 0 -100 -1 -100 -20 0 -17 7 -20 40 -20 33 0 40 -3
40 -20 0 -18 7 -20 60 -20 53 0 60 2 60 20 0 13 7 20 20 20 13 0 20 -7 20 -20
0 -13 7 -20 20 -20 13 0 20 7 20 20 0 13 7 20 20 20 18 0 20 7 20 60 l0 60 80
0 80 0 0 -60 0 -60 40 0 c33 0 40 3 40 20 0 13 7 20 20 20 17 0 20 7 20 40 l0
40 80 0 c73 0 80 2 80 20 0 18 7 20 80 20 73 0 80 -2 80 -20 0 -18 -7 -20 -60
-20 l-60 0 0 -60 0 -60 40 0 40 0 0 -60 c0 -53 2 -60 20 -60 18 0 20 7 20 60
0 53 2 60 20 60 13 0 20 7 20 20 0 19 7 20 120 20 l120 0 0 -40 0 -40 60 0
c53 0 60 2 60 20 0 18 7 20 60 20 53 0 60 -2 60 -20 0 -18 7 -20 80 -20 73 0
80 -2 80 -20 0 -18 -7 -20 -60 -20 -53 0 -60 -2 -60 -20 0 -13 -7 -20 -20 -20
-16 0 -20 -7 -20 -35 l0 -35 -80 0 -80 0 0 35 c0 34 -1 35 -40 35 -39 0 -40
-1 -40 -35 0 -34 -1 -35 -40 -35 -39 0 -40 1 -40 35 0 28 -4 35 -20 35 -16 0
-20 -7 -20 -35 l0 -35 -120 0 -120 0 0 35 0 35 -120 0 c-113 0 -120 -1 -120
-20 0 -13 -7 -20 -20 -20 -11 0 -20 -7 -20 -15 0 -12 -20 -15 -120 -15 l-120
0 0 35 0 35 -60 0 c-53 0 -60 2 -60 20 0 30 -40 27 -41 -2 0 -13 -3 -17 -6
-10 -3 8 -30 12 -84 12 l-79 0 0 45 0 45 -45 0 -45 0 0 80 0 80 -45 0 c-41 0
-45 2 -45 25 0 22 4 25 35 25 28 0 35 -4 35 -20z m1520 -100 l0 -40 -60 0 -60
0 0 40 0 40 60 0 60 0 0 -40z m440 -120 c0 -33 -3 -40 -20 -40 -13 0 -20 7
-20 20 0 17 -7 20 -40 20 -33 0 -40 -3 -40 -20 0 -13 7 -20 20 -20 18 0 20 -7
20 -55 l0 -55 -100 0 -100 0 0 35 0 35 80 0 c73 0 80 2 80 20 0 17 -7 20 -40
20 -33 0 -40 3 -40 20 0 13 7 20 20 20 13 0 20 7 20 20 0 18 7 20 80 20 l80 0
0 -40z m840 -20 c0 -17 -7 -20 -40 -20 -33 0 -40 3 -40 20 0 17 7 20 40 20 33
0 40 -3 40 -20z"/>
<path d="M1720 3720 c0 -33 -3 -40 -20 -40 -17 0 -20 -7 -20 -40 0 -33 -3 -40
-20 -40 -13 0 -20 -7 -20 -20 0 -17 7 -20 40 -20 l40 0 0 -200 0 -200 -40 0
-40 0 0 -40 c0 -33 -3 -40 -20 -40 -13 0 -20 -7 -20 -20 0 -17 -7 -20 -40 -20
-33 0 -40 -3 -40 -20 0 -17 7 -20 40 -20 l40 0 0 -40 0 -40 40 0 40 0 0 40 c0
33 3 40 20 40 17 0 20 7 20 40 l0 40 40 0 40 0 0 80 0 80 80 0 c73 0 80 2 80
20 0 17 -7 20 -40 20 -33 0 -40 3 -40 20 0 17 7 20 40 20 l40 0 0 200 0 200
-100 0 c-93 0 -100 1 -100 20 0 13 -7 20 -20 20 -17 0 -20 -7 -20 -40z"/>
<path d="M1600 3700 c0 -13 7 -20 20 -20 13 0 20 7 20 20 0 13 -7 20 -20 20
-13 0 -20 -7 -20 -20z"/>
<path d="M2000 3640 c0 -33 3 -40 20 -40 17 0 20 7 20 40 0 33 -3 40 -20 40
-17 0 -20 -7 -20 -40z"/>
<path d="M1480 3500 l0 -60 -60 0 -60 0 0 -180 c0 -173 1 -180 20 -180 19 0
20 7 20 160 l0 160 60 0 60 0 0 80 c0 73 -2 80 -20 80 -18 0 -20 -7 -20 -60z"/>
<path d="M1560 3420 l0 -100 40 0 40 0 0 100 0 100 -40 0 -40 0 0 -100z"/>
<path d="M2000 3420 l0 -100 40 0 40 0 0 100 0 100 -40 0 -40 0 0 -100z"/>
<path d="M1560 3180 c0 -13 7 -20 20 -20 13 0 20 7 20 20 0 13 -7 20 -20 20
-13 0 -20 -7 -20 -20z"/>
<path d="M1920 2940 c0 -13 7 -20 20 -20 13 0 20 7 20 20 0 13 -7 20 -20 20
-13 0 -20 -7 -20 -20z"/>
<path d="M2040 2900 c0 -53 2 -60 20 -60 18 0 20 7 20 60 0 53 -2 60 -20 60
-18 0 -20 -7 -20 -60z"/>
<path d="M1160 2580 l0 -60 -60 0 -60 0 0 -40 c0 -33 3 -40 20 -40 13 0 20 -7
20 -20 0 -17 7 -20 40 -20 l40 0 0 40 c0 33 3 40 20 40 18 0 20 7 20 80 0 73
-2 80 -20 80 -18 0 -20 -7 -20 -60z"/>
<path d="M2160 2540 c0 -18 -7 -20 -60 -20 -53 0 -60 -2 -60 -20 0 -18 7 -20
80 -20 l80 0 0 40 c0 33 -3 40 -20 40 -13 0 -20 -7 -20 -20z"/>
<path d="M1640 2480 l0 -40 60 0 c53 0 60 -2 60 -20 0 -13 7 -20 20 -20 13 0
20 7 20 20 0 13 -7 20 -20 20 -13 0 -20 7 -20 20 0 13 -7 20 -20 20 -13 0 -20
7 -20 20 0 17 -7 20 -40 20 l-40 0 0 -40z"/>
<path d="M1720 2300 c0 -18 7 -20 80 -20 73 0 80 2 80 20 0 18 -7 20 -80 20
-73 0 -80 -2 -80 -20z"/>
<path d="M880 2260 c0 -13 7 -20 20 -20 13 0 20 -7 20 -20 0 -13 -7 -20 -20
-20 -18 0 -20 -7 -20 -60 0 -53 2 -60 20 -60 18 0 20 7 20 60 0 53 2 60 20 60
17 0 20 7 20 40 l0 40 -40 0 c-33 0 -40 -3 -40 -20z"/>
<path d="M1080 2160 c0 -113 1 -120 20 -120 13 0 20 -7 20 -20 0 -17 7 -20 40
-20 33 0 40 3 40 20 0 13 -7 20 -20 20 -13 0 -20 7 -20 20 0 13 -7 20 -20 20
-18 0 -20 7 -20 60 0 53 2 60 20 60 13 0 20 7 20 20 0 17 7 20 40 20 33 0 40
3 40 20 0 18 -7 20 -80 20 l-80 0 0 -120z"/>
<path d="M960 2120 l0 -40 40 0 40 0 0 40 0 40 -40 0 -40 0 0 -40z"/>
<path d="M1680 2120 l0 -40 -40 0 c-33 0 -40 -3 -40 -20 0 -17 7 -20 40 -20
33 0 40 3 40 20 0 13 7 20 20 20 17 0 20 7 20 40 0 33 -3 40 -20 40 -17 0 -20
-7 -20 -40z"/>
<path d="M1960 2100 c0 -53 2 -60 20 -60 18 0 20 7 20 60 0 53 -2 60 -20 60
-18 0 -20 -7 -20 -60z"/>
<path d="M960 1940 c0 -17 7 -20 40 -20 33 0 40 3 40 20 0 17 -7 20 -40 20
-33 0 -40 -3 -40 -20z"/>
<path d="M1920 1940 c0 -13 7 -20 20 -20 17 0 20 -7 20 -40 0 -33 -3 -40 -20
-40 -13 0 -20 -7 -20 -20 0 -13 7 -20 20 -20 13 0 20 7 20 20 0 13 7 20 20 20
13 0 20 -7 20 -20 0 -13 7 -20 20 -20 13 0 20 7 20 20 0 13 -7 20 -20 20 -17
0 -20 7 -20 40 0 33 -3 40 -20 40 -13 0 -20 7 -20 20 0 13 -7 20 -20 20 -13 0
-20 -7 -20 -20z"/>
<path d="M760 1780 c0 -13 -7 -20 -20 -20 -13 0 -20 -7 -20 -20 0 -17 7 -20
40 -20 l40 0 0 40 c0 33 -3 40 -20 40 -13 0 -20 -7 -20 -20z"/>
<path d="M760 1600 l0 -80 40 0 40 0 0 80 0 80 -40 0 -40 0 0 -80z"/>
<path d="M1480 1580 c0 -13 -7 -20 -20 -20 -13 0 -20 -7 -20 -20 0 -13 7 -20
20 -20 13 0 20 -7 20 -20 0 -13 7 -20 20 -20 13 0 20 7 20 20 0 17 7 20 40 20
l40 0 0 40 0 40 -60 0 c-53 0 -60 -2 -60 -20z"/>
<path d="M1640 1560 l0 -40 40 0 40 0 0 40 0 40 -40 0 -40 0 0 -40z"/>
<path d="M3320 2740 c0 -13 7 -20 20 -20 13 0 20 7 20 20 0 13 -7 20 -20 20
-13 0 -20 -7 -20 -20z"/>
<path d="M3400 2300 c0 -13 -7 -20 -20 -20 -13 0 -20 -7 -20 -20 0 -17 7 -20
40 -20 l40 0 0 40 c0 33 -3 40 -20 40 -13 0 -20 -7 -20 -20z"/>
<path d="M760 1260 c0 -13 7 -20 20 -20 13 0 20 7 20 20 0 13 -7 20 -20 20
-13 0 -20 -7 -20 -20z"/>
<path d="M760 1180 c0 -13 7 -20 20 -20 13 0 20 7 20 20 0 13 -7 20 -20 20
-13 0 -20 -7 -20 -20z"/>
<path d="M680 1060 c0 -18 7 -20 60 -20 53 0 60 2 60 20 0 18 -7 20 -60 20
-53 0 -60 -2 -60 -20z"/>
<path d="M2240 1220 c0 -13 -7 -20 -20 -20 -13 0 -20 -7 -20 -20 0 -18 7 -20
60 -20 l60 0 0 40 0 40 -40 0 c-33 0 -40 -3 -40 -20z"/>
<path d="M2560 1240 c0 -33 3 -40 20 -40 17 0 20 7 20 40 0 33 -3 40 -20 40
-17 0 -20 -7 -20 -40z"/>
<path d="M1960 860 c0 -53 2 -60 20 -60 18 0 20 7 20 60 0 53 -2 60 -20 60
-18 0 -20 -7 -20 -60z"/>
<path d="M1440 940 c0 -13 7 -20 20 -20 13 0 20 7 20 20 0 13 -7 20 -20 20
-13 0 -20 -7 -20 -20z"/>
<path d="M160 820 c0 -13 7 -20 20 -20 13 0 20 7 20 20 0 13 -7 20 -20 20 -13
0 -20 -7 -20 -20z"/>
<path d="M360 760 c0 -33 3 -40 20 -40 17 0 20 7 20 40 0 33 -3 40 -20 40 -17
0 -20 -7 -20 -40z"/>
<path d="M3720 460 c0 -13 7 -20 20 -20 13 0 20 7 20 20 0 13 -7 20 -20 20
-13 0 -20 -7 -20 -20z"/>
<path d="M2760 300 c0 -13 7 -20 20 -20 13 0 20 7 20 20 0 13 -7 20 -20 20
-13 0 -20 -7 -20 -20z"/>
<path d="M3560 260 c0 -19 -7 -20 -100 -20 -93 0 -100 -1 -100 -20 0 -13 7
-20 20 -20 13 0 20 -7 20 -20 0 -13 7 -20 20 -20 13 0 20 7 20 20 0 17 7 20
40 20 33 0 40 -3 40 -20 0 -13 7 -20 20 -20 13 0 20 7 20 20 0 13 7 20 20 20
13 0 20 7 20 20 0 13 7 20 20 20 13 0 20 7 20 20 0 17 -7 20 -40 20 -33 0 -40
-3 -40 -20z"/>
<path d="M2360 220 c0 -19 7 -20 100 -20 93 0 100 1 100 20 0 19 -7 20 -100
20 -93 0 -100 -1 -100 -20z"/>
<path d="M200 360 c0 -33 3 -40 20 -40 17 0 20 7 20 40 0 33 -3 40 -20 40 -17
0 -20 -7 -20 -40z"/>
<path d="M320 220 c0 -13 7 -20 20 -20 13 0 20 7 20 20 0 13 -7 20 -20 20 -13
0 -20 -7 -20 -20z"/>
<path d="M560 220 c0 -13 7 -20 20 -20 13 0 20 7 20 20 0 13 -7 20 -20 20 -13
0 -20 -7 -20 -20z"/>
<path d="M880 220 c0 -17 7 -20 40 -20 33 0 40 3 40 20 0 17 -7 20 -40 20 -33
0 -40 -3 -40 -20z"/>
<path d="M1320 220 c0 -13 7 -20 20 -20 13 0 20 7 20 20 0 13 -7 20 -20 20
-13 0 -20 -7 -20 -20z"/>
<path d="M720 180 c0 -18 7 -20 60 -20 53 0 60 2 60 20 0 18 -7 20 -60 20 -53
0 -60 -2 -60 -20z"/>
</g>
</svg>
